<?xml version="1.0" encoding="UTF-8"?><svg width="200px" height="230px" viewBox="0 0 200 230" version="1.1" xmlns="http://www.w3.org/2000/svg" xmlns:xlink="http://www.w3.org/1999/xlink"><title>Patron</title><desc>Patron for Craft CMS (by Flipbox)</desc><defs><linearGradient x1="0%" y1="0%" x2="50%" y2="100%" id="linearGradient-1"><stop stop-color="#F0461D" offset="0%"></stop><stop stop-color="#FF2078" offset="100%"></stop></linearGradient></defs><g id="Page-1" stroke="none" stroke-width="1" fill="none" fill-rule="evenodd"><g id="Patron" fill-rule="nonzero"><g id="Icon"><polygon id="Polygon" fill="url(#linearGradient-1)" points="100 0 200 57.5 200 172.5 100 230 0 172.5 0 57.5"></polygon><g id="Group" transform="translate(58.468750, 57.500000)" fill="#FFFFFF"><path d="M85.676969,0.194190773 L0.233028927,0.893277555 L0.388381546,19.8851351 L85.8323216,19.1860484 L85.676969,0.194190773 Z M45.4018027,12.3893713 L31.1482,12.5058858 L31.1093618,7.76763091 L45.3629645,7.65111645 L45.4018027,12.3893713 Z M54.9171505,12.311695 L50.1788957,12.3505332 L50.1400575,7.61227829 L54.8783124,7.57344014 L54.9171505,12.311695 Z" id="Shape"></path><path d="M1.16514464,114.844423 L86.6090847,114.145336 L86.4537321,95.1534787 L1.00979202,95.8525655 L1.16514464,114.844423 Z M31.924963,102.688081 L55.6550755,102.49389 C56.9755727,102.49389 58.0242029,103.54252 58.0630411,104.863017 C58.0630411,106.183515 57.0144109,107.232145 55.6939136,107.270983 L31.9638012,107.465174 C30.6433039,107.465174 29.5946738,106.416543 29.5558356,105.096046 C29.5558356,103.775549 30.6044658,102.726919 31.924963,102.688081 Z" id="Shape"></path><path d="M70.8796321,48.9360747 C69.2095914,49.8681905 67.4618745,50.761468 65.6364812,51.6159074 C64.8985563,51.9654508 64.1217932,52.3149942 63.3450301,52.6256994 C63.7722498,54.6841216 64.5101747,56.8978964 65.6753194,59.1505094 C67.4230363,62.6071052 70.1417071,66.0637009 74.375066,68.8988862 C81.3270957,64.082955 84.1234428,57.6358214 85.1332348,52.4315087 C83.1136508,51.6159074 81.2105812,50.761468 79.3851879,49.8293523 C77.5597947,48.9360747 75.8120777,47.9651209 74.1808752,46.9553289 C73.132245,47.6544156 72.0059386,48.2758261 70.8796321,48.9360747 Z" id="Shape"></path><path d="M74.5304186,86.0265124 L72.4719964,85.0555585 C49.1302655,74.1420371 47.8874446,51.9654508 48.0816353,45.4018027 L48.1593117,42.1005595 L51.3052022,41.0519294 C62.4129144,37.2846284 68.3939902,33.0124314 70.9961465,30.7986566 L74.0255226,28.1965002 L77.0937368,30.7598184 C78.6861011,32.0803157 81.5212864,34.0998997 85.948836,36.2748364 L85.8323216,23.9631414 L0.388381546,24.6622281 L0.932115709,91.1143106 L86.3760557,90.4152238 L86.2595413,78.5695867 C83.5408705,80.9387141 80.3561418,83.1913271 76.5111645,85.0555585 L74.5304186,86.0265124 Z" id="Shape"></path><path d="M52.8198902,45.5183171 C52.6645376,51.1886877 53.6743296,71.0349847 74.4915804,80.7445233 C94.8816116,70.7631176 95.736051,50.761468 95.5418602,45.1687738 C83.6185468,41.3626346 77.0160605,36.7797324 74.1031989,34.3717668 C71.2291755,36.8185705 64.6655273,41.5179872 52.8198902,45.5183171 Z M88.6286687,48.741884 L90.3763857,49.4021326 L90.1433567,51.266364 C89.2500792,57.9853648 85.9876742,67.34536 75.6567251,73.7536555 L74.4139041,74.5304186 L73.1710832,73.7924937 C62.7236196,67.5395508 59.305862,58.2572318 58.29607,51.5382311 L58.0242029,49.6739997 L59.7719199,48.9749129 C64.7043655,46.994167 69.093077,44.7027159 72.860378,42.217074 L74.1420371,41.3626346 L75.4625343,42.217074 C79.2298353,44.5862014 83.6573849,46.7999762 88.6286687,48.741884 Z" id="Shape"></path></g></g></g></g></svg>