<?xml version="1.0" encoding="UTF-8"?><svg width="180px" height="180px" viewBox="0 0 180 180" version="1.1" xmlns="http://www.w3.org/2000/svg" xmlns:xlink="http://www.w3.org/1999/xlink"><g id="Page-1" stroke="none" stroke-width="1" fill="none" fill-rule="evenodd"><g id="Guardian" transform="translate(-911.000000, -25.000000)"><g id="Patron-Copy" transform="translate(911.000000, 25.000000)"><path d="M89.9023438,0.592493333 C40.5298994,0.592493333 0.5,40.6223927 0.5,89.9948371 C0.5,139.367281 40.5298994,179.397181 89.9023438,179.397181 C139.274788,179.397181 179.304688,139.367281 179.304688,89.9948371 C179.304688,40.6223927 139.274788,0.592493333 89.9023438,0.592493333 Z" id="Path" fill="#000000"></path><path d="M91.8401862,115.634808 C78.8324494,115.634808 68.2790026,105.0463 68.2790026,92.0736245 C68.2790026,79.0658878 78.8324494,68.512441 91.8401862,68.512441 C104.847923,68.512441 115.40137,79.0658878 115.40137,92.0736245 C115.40137,105.0463 104.847923,115.634808 91.8401862,115.634808 Z M142.994601,64.2700255 C142.889417,63.3934934 142.258314,62.6572064 141.416843,62.4468387 C106.565926,53.3309045 93.417944,41.3399451 93.3127601,41.2347612 C92.4712893,40.4634129 91.209083,40.4634129 90.3676122,41.2347612 C90.2273671,41.3399451 77.1144465,53.3309045 42.2635291,62.4468387 C41.4220583,62.6572064 40.7909551,63.3934934 40.6857713,64.2700255 C40.6156487,64.831006 34.5851077,122.015962 91.1038992,143.333223 C91.3493282,143.438407 91.5947572,143.473468 91.8401862,143.473468 C92.0856152,143.473468 92.3661055,143.438407 92.5764732,143.333223 C149.095265,122.015962 143.064724,64.831006 142.994601,64.2700255 Z" id="Shape" fill="#FFFFFF" fill-rule="nonzero"></path><polygon id="Shape" fill="#FFFFFF" fill-rule="nonzero" points="87.2120965 98.279472 79.4986138 90.5659893 76.4833433 93.5812598 87.2120965 104.310013 107.197029 84.3601418 104.181759 81.30981"></polygon></g></g></g></svg>