<?xml version="1.0" encoding="UTF-8"?><svg width="97px" height="116px" viewBox="0 0 97 116" version="1.1" xmlns="http://www.w3.org/2000/svg" xmlns:xlink="http://www.w3.org/1999/xlink"><title>Patron</title><desc>Patron for Craft CMS (by Flipbox)</desc><defs></defs><g id="Page-1" stroke="none" stroke-width="1" fill="none" fill-rule="evenodd"><g id="Patron" transform="translate(-658.000000, -57.000000)" fill="#000000" fill-rule="nonzero"><g id="Mask" transform="translate(658.468750, 56.785156)"><path d="M85.676969,0.909034523 L0.233028927,1.6081213 L0.388381546,20.5999789 L85.8323216,19.9008921 L85.676969,0.909034523 Z M45.4018027,13.1042151 L31.1482,13.2207295 L31.1093618,8.48247466 L45.3629645,8.3659602 L45.4018027,13.1042151 Z M54.9171505,13.0265387 L50.1788957,13.0653769 L50.1400575,8.32712204 L54.8783124,8.28828389 L54.9171505,13.0265387 Z" id="Shape"></path><path d="M1.16514464,115.559267 L86.6090847,114.86018 L86.4537321,95.8683224 L1.00979202,96.5674092 L1.16514464,115.559267 Z M31.924963,103.402924 L55.6550755,103.208734 C56.9755727,103.208734 58.0242029,104.257364 58.0630411,105.577861 C58.0630411,106.898358 57.0144109,107.946988 55.6939136,107.985827 L31.9638012,108.180017 C30.6433039,108.180017 29.5946738,107.131387 29.5558356,105.81089 C29.5558356,104.490393 30.6044658,103.441763 31.924963,103.402924 Z" id="Shape"></path><path d="M70.8796321,49.6509185 C69.2095914,50.5830342 67.4618745,51.4763118 65.6364812,52.3307512 C64.8985563,52.6802946 64.1217932,53.0298379 63.3450301,53.3405432 C63.7722498,55.3989654 64.5101747,57.6127402 65.6753194,59.8653531 C67.4230363,63.3219489 70.1417071,66.7785447 74.375066,69.6137299 C81.3270957,64.7977988 84.1234428,58.3506651 85.1332348,53.1463524 C83.1136508,52.3307512 81.2105812,51.4763118 79.3851879,50.5441961 C77.5597947,49.6509185 75.8120777,48.6799646 74.1808752,47.6701726 C73.132245,48.3692594 72.0059386,48.9906699 70.8796321,49.6509185 Z" id="Shape"></path><path d="M74.5304186,86.7413561 L72.4719964,85.7704022 C49.1302655,74.8568808 47.8874446,52.6802946 48.0816353,46.1166464 L48.1593117,42.8154033 L51.3052022,41.7667731 C62.4129144,37.9994721 68.3939902,33.7272751 70.9961465,31.5135003 L74.0255226,28.911344 L77.0937368,31.4746622 C78.6861011,32.7951594 81.5212864,34.8147435 85.948836,36.9896801 L85.8323216,24.6779851 L0.388381546,25.3770719 L0.932115709,91.8291543 L86.3760557,91.1300676 L86.2595413,79.2844304 C83.5408705,81.6535579 80.3561418,83.9061708 76.5111645,85.7704022 L74.5304186,86.7413561 Z" id="Shape"></path><path d="M52.8198902,46.2331609 C52.6645376,51.9035315 53.6743296,71.7498284 74.4915804,81.4593671 C94.8816116,71.4779614 95.736051,51.4763118 95.5418602,45.8836175 C83.6185468,42.0774784 77.0160605,37.4945761 74.1031989,35.0866105 C71.2291755,37.5334143 64.6655273,42.232831 52.8198902,46.2331609 Z M88.6286687,49.4567277 L90.3763857,50.1169764 L90.1433567,51.9812078 C89.2500792,58.7002085 85.9876742,68.0602038 75.6567251,74.4684993 L74.4139041,75.2452624 L73.1710832,74.5073374 C62.7236196,68.2543945 59.305862,58.9720756 58.29607,52.2530749 L58.0242029,50.3888434 L59.7719199,49.6897567 C64.7043655,47.7090108 69.093077,45.4175596 72.860378,42.9319178 L74.1420371,42.0774784 L75.4625343,42.9319178 C79.2298353,45.3010452 83.6573849,47.51482 88.6286687,49.4567277 Z" id="Shape"></path></g></g></g></svg>